<svg width="83" height="83" viewBox="0 0 83 83" fill="none" xmlns="http://www.w3.org/2000/svg">
<path opacity="0.2" d="M59.0043 47.8367C58.6585 48.1404 58.4015 48.5321 58.2605 48.9702C58.1194 49.4082 58.0997 49.8764 58.2033 50.3248L62.4671 68.7859C62.5797 69.2681 62.548 69.7728 62.3758 70.2371C62.2037 70.7013 61.8988 71.1047 61.499 71.3969C61.0992 71.689 60.6224 71.8571 60.1276 71.8802C59.6331 71.9032 59.1426 71.7802 58.7174 71.5264L42.6025 61.7503C42.211 61.5122 41.7616 61.3863 41.3033 61.3863C40.845 61.3863 40.3955 61.5122 40.004 61.7503L23.8891 71.5264C23.4639 71.7802 22.9735 71.9032 22.4789 71.8802C21.9843 71.8571 21.5073 71.689 21.1075 71.3969C20.7078 71.1047 20.4028 70.7013 20.2307 70.2371C20.0586 69.7728 20.0269 69.2681 20.1395 68.7859L24.4032 50.3248C24.5068 49.8764 24.4871 49.4082 24.346 48.9702C24.205 48.5321 23.948 48.1404 23.6022 47.8367L9.37631 35.4273C8.99599 35.104 8.7201 34.6752 8.58355 34.1951C8.447 33.715 8.45593 33.2052 8.6092 32.7302C8.76248 32.2552 9.05321 31.8363 9.44462 31.5266C9.83603 31.2169 10.3105 31.0302 10.8081 30.9902L29.5593 29.3692C30.0168 29.3284 30.4545 29.1636 30.8251 28.8924C31.1958 28.6212 31.4854 28.2539 31.6628 27.8303L38.9885 10.372C39.1842 9.92061 39.5076 9.5363 39.9189 9.26634C40.33 8.99638 40.8113 8.85254 41.3033 8.85254C41.7952 8.85254 42.2765 8.99638 42.6878 9.26634C43.0989 9.5363 43.4223 9.92061 43.618 10.372L50.9438 27.8303C51.1211 28.2539 51.4107 28.6212 51.7814 28.8924C52.1521 29.1636 52.5897 29.3284 53.0472 29.3692L71.7985 30.9902C72.2961 31.0302 72.7705 31.2169 73.1619 31.5266C73.5534 31.8363 73.8441 32.2552 73.9974 32.7302C74.1507 33.2052 74.1595 33.715 74.0229 34.1951C73.8865 34.6752 73.6106 35.104 73.2302 35.4273L59.0043 47.8367Z" fill="#F99A03"/>
<path d="M76.3722 31.9386C76.0667 30.9969 75.4909 30.1659 74.7165 29.5491C73.9421 28.9323 73.0034 28.5569 72.0171 28.4696L53.288 26.855L45.9464 9.39675C45.5642 8.48068 44.9194 7.69819 44.0934 7.1478C43.2673 6.5974 42.297 6.30371 41.3043 6.30371C40.3118 6.30371 39.3413 6.5974 38.5152 7.1478C37.6892 7.69819 37.0445 8.48068 36.6622 9.39675L29.3428 26.855L10.5915 28.4791C9.60138 28.5623 8.65786 28.936 7.87927 29.5533C7.10068 30.1706 6.52167 31.004 6.21486 31.9491C5.90803 32.8941 5.88706 33.9087 6.15457 34.8656C6.42208 35.8225 6.96616 36.6792 7.71857 37.3282L21.9445 49.7595L17.6808 68.2207C17.4553 69.1868 17.5197 70.1978 17.8657 71.1276C18.2118 72.0573 18.8243 72.8644 19.6266 73.448C20.4288 74.0315 21.3853 74.3655 22.3764 74.4084C23.3675 74.4513 24.3493 74.2011 25.199 73.689L41.2822 63.9128L57.4002 73.689C58.2499 74.2011 59.2317 74.4513 60.2228 74.4084C61.2139 74.3655 62.1704 74.0315 62.9726 73.448C63.7749 72.8644 64.3874 72.0573 64.7335 71.1276C65.0795 70.1978 65.1439 69.1868 64.9184 68.2207L60.6579 49.7407L74.8806 37.3282C75.6329 36.6769 76.1759 35.8179 76.4413 34.8589C76.7067 33.9 76.6827 32.884 76.3722 31.9386ZM71.5725 33.5154L57.3498 45.9279C56.6576 46.53 56.1426 47.3095 55.8604 48.1824C55.5781 49.0555 55.5391 49.9888 55.7478 50.8823L60.0209 69.3749L43.9155 59.5987C43.1297 59.1203 42.2275 58.8671 41.3074 58.8671C40.3874 58.8671 39.4853 59.1203 38.6995 59.5987L22.6161 69.3749L26.8609 50.8948C27.0695 50.0014 27.0306 49.068 26.7482 48.1951C26.466 47.3222 25.9511 46.5427 25.2588 45.9406L11.0298 33.5343C11.0287 33.5249 11.0287 33.5154 11.0298 33.5059L29.7748 31.885C30.69 31.8043 31.5658 31.4753 32.3076 30.9335C33.0496 30.3916 33.6295 29.6575 33.9848 28.8103L41.3043 11.3741L48.6206 28.8103C48.976 29.6575 49.5559 30.3916 50.2978 30.9335C51.0397 31.4753 51.9155 31.8043 52.8307 31.885L71.5788 33.5059C71.5788 33.5059 71.5788 33.5249 71.5788 33.528L71.5725 33.5154Z" fill="#F99A03"/>
</svg>
