<svg width="44" height="26" viewBox="0 0 44 26" fill="none" xmlns="http://www.w3.org/2000/svg">
<path d="M28.8313 25.4408C28.5274 25.4408 28.236 25.3234 28.0211 25.1143C27.8062 24.9053 27.6855 24.6218 27.6855 24.3262C27.6855 23.0376 28.5879 21.3351 30.4423 19.1026C32.0731 17.1162 34.0348 15.4098 36.2458 14.0546L1.69177 14.0546C1.53775 14.0603 1.38413 14.0357 1.24011 13.9823C1.09609 13.9289 0.964619 13.8478 0.853579 13.7438C0.742539 13.6398 0.654209 13.5151 0.593874 13.3771C0.533539 13.2391 0.502441 13.0907 0.502441 12.9408C0.502441 12.7909 0.533539 12.6425 0.593874 12.5045C0.654209 12.3665 0.742539 12.2418 0.853579 12.1378C0.964619 12.0338 1.09609 11.9527 1.24011 11.8993C1.38413 11.8459 1.53775 11.8213 1.69177 11.827L36.2458 11.827C34.0333 10.4724 32.0713 8.76473 30.4423 6.77577C28.5879 4.54814 27.6855 2.83916 27.6855 1.55542C27.6796 1.40559 27.7049 1.25615 27.7598 1.11604C27.8147 0.975935 27.8981 0.848044 28.005 0.740025C28.1119 0.632005 28.2401 0.546077 28.3819 0.487383C28.5238 0.42869 28.6763 0.398437 28.8305 0.398437C28.9846 0.398437 29.1371 0.42869 29.279 0.487383C29.4208 0.546077 29.549 0.632005 29.6559 0.740025C29.7628 0.848044 29.8462 0.975935 29.9011 1.11604C29.956 1.25615 29.9813 1.40559 29.9754 1.55542C29.9754 1.81797 30.141 2.86977 32.2223 5.37605C33.7472 7.24186 35.5965 8.83317 37.6863 10.0777C39.6401 11.2214 41.2677 11.827 42.3952 11.827C42.6914 11.8379 42.9716 11.9601 43.1771 12.1678C43.3827 12.3755 43.4975 12.6525 43.4975 12.9408C43.4975 13.2291 43.3827 13.5061 43.1771 13.7138C42.9716 13.9215 42.6914 14.0437 42.3952 14.0546C41.266 14.0546 39.6384 14.6586 37.6863 15.8039C35.5975 17.0485 33.7484 18.6385 32.2223 20.5023C30.136 23.0118 29.9738 24.0636 29.9738 24.3262C29.974 24.4723 29.9446 24.6171 29.8873 24.7522C29.83 24.8874 29.7459 25.0102 29.6398 25.1137C29.5337 25.2172 29.4077 25.2993 29.269 25.3555C29.1303 25.4116 28.9815 25.4406 28.8313 25.4408Z" fill="white"/>
</svg>
