<svg width="83" height="83" viewBox="0 0 83 83" fill="none" xmlns="http://www.w3.org/2000/svg">
<path opacity="0.2" d="M71.4008 41.624C71.4008 47.6118 69.6252 53.465 66.2986 58.4436C62.9719 63.4223 58.2437 67.3026 52.7118 69.5941C47.1799 71.8855 41.0927 72.4849 35.22 71.3168C29.3473 70.1486 23.953 67.2653 19.719 63.0313C15.4851 58.7974 12.6017 53.403 11.4335 47.5304C10.2654 41.6577 10.8649 35.5705 13.1563 30.0385C15.4477 24.5066 19.328 19.7784 24.3067 16.4518C29.2853 13.1252 35.1386 11.3496 41.1263 11.3496C49.1556 11.3496 56.8561 14.5393 62.5336 20.2168C68.2111 25.8943 71.4008 33.5948 71.4008 41.624Z" fill="#F99A03"/>
<path d="M73.9234 44.3543C73.3873 50.5858 71.0828 56.5345 67.2807 61.5006C63.4788 66.4667 58.3375 70.2436 52.4618 72.3871C46.5861 74.5305 40.2205 74.9513 34.1138 73.5998C28.0072 72.2484 22.4135 69.1809 17.991 64.7584C13.5684 60.3358 10.501 54.7421 9.14952 48.6355C7.79804 42.5288 8.21877 36.1632 10.3622 30.2875C12.5057 24.4118 16.2826 19.2705 21.2487 15.4686C26.2149 11.6665 32.1636 9.36195 38.395 8.82595C38.7263 8.79862 39.0598 8.83682 39.3763 8.93835C39.6928 9.03988 39.9863 9.20277 40.2399 9.41772C40.4935 9.63265 40.7023 9.89545 40.8544 10.1911C41.0064 10.4867 41.0987 10.8094 41.1261 11.1407C41.1533 11.472 41.1152 11.8054 41.0136 12.122C40.9121 12.4386 40.7492 12.732 40.5342 12.9856C40.3193 13.2392 40.0566 13.4479 39.7609 13.6C39.4652 13.752 39.1426 13.8443 38.8113 13.8717C33.5371 14.3249 28.5022 16.2749 24.2988 19.4925C20.0954 22.7101 16.8984 27.0614 15.0841 32.0342C13.2697 37.0071 12.9134 42.3948 14.0571 47.5634C15.2008 52.7318 17.797 57.4661 21.54 61.2093C25.2832 64.9523 30.0175 67.5484 35.186 68.6922C40.3545 69.8359 45.7421 69.4796 50.7151 67.6653C55.688 65.8509 60.0392 62.6539 63.2568 58.4505C66.4744 54.2471 68.4244 49.2122 68.8777 43.938C68.9328 43.269 69.2516 42.6491 69.7637 42.2151C70.2759 41.7809 70.9396 41.5681 71.6086 41.6233C72.2777 41.6786 72.8975 41.9972 73.3316 42.5094C73.7657 43.0216 73.9786 43.6852 73.9234 44.3543ZM38.6032 23.9632V41.6233C38.6032 42.2925 38.8689 42.9342 39.3421 43.4072C39.8152 43.8804 40.4569 44.1461 41.1261 44.1461H58.7862C59.4552 44.1461 60.0969 43.8804 60.5701 43.4072C61.0432 42.9342 61.309 42.2925 61.309 41.6233C61.309 40.9542 61.0432 40.3125 60.5701 39.8393C60.0969 39.3663 59.4552 39.1004 58.7862 39.1004H43.6489V23.9632C43.6489 23.2941 43.3831 22.6524 42.91 22.1792C42.4368 21.7061 41.7951 21.4403 41.1261 21.4403C40.4569 21.4403 39.8152 21.7061 39.3421 22.1792C38.8689 22.6524 38.6032 23.2941 38.6032 23.9632ZM51.2175 16.3945C51.966 16.3945 52.6976 16.1726 53.3199 15.7568C53.9422 15.341 54.4273 14.75 54.7138 14.0585C55.0002 13.367 55.0751 12.6061 54.9291 11.872C54.7831 11.1379 54.4227 10.4636 53.8935 9.93436C53.3641 9.40511 52.6899 9.04469 51.9558 8.89867C51.2217 8.75265 50.4608 8.82759 49.7693 9.11402C49.0778 9.40045 48.4868 9.88549 48.071 10.5078C47.6551 11.1301 47.4332 11.8618 47.4332 12.6102C47.4332 13.6139 47.8318 14.5765 48.5416 15.2862C49.2513 15.9958 50.2139 16.3945 51.2175 16.3945ZM62.5705 23.9632C63.3189 23.9632 64.0506 23.7413 64.6729 23.3254C65.2952 22.9096 65.7802 22.3186 66.0667 21.6271C66.3531 20.9356 66.428 20.1747 66.282 19.4406C66.136 18.7065 65.7756 18.0322 65.2464 17.5029C64.717 16.9737 64.0428 16.6133 63.3087 16.4673C62.5746 16.3212 61.8137 16.3962 61.1222 16.6826C60.4307 16.9691 59.8397 17.4542 59.4239 18.0765C59.0081 18.6988 58.7862 19.4304 58.7862 20.1789C58.7862 21.1825 59.1848 22.1451 59.8945 22.8548C60.6042 23.5644 61.5668 23.9632 62.5705 23.9632ZM70.1391 35.3161C70.8875 35.3161 71.6192 35.0942 72.2415 34.6783C72.8638 34.2625 73.3489 33.6715 73.6353 32.98C73.9217 32.2885 73.9966 31.5276 73.8506 30.7935C73.7046 30.0594 73.3443 29.3851 72.815 28.8559C72.2857 28.3266 71.6114 27.9662 70.8773 27.8202C70.1432 27.6741 69.3823 27.7492 68.6908 28.0355C67.9994 28.322 67.4083 28.8071 66.9926 29.4294C66.5767 30.0517 66.3548 30.7833 66.3548 31.5318C66.3548 32.5354 66.7534 33.4981 67.4632 34.2077C68.1728 34.9174 69.1354 35.3161 70.1391 35.3161Z" fill="#F99A03"/>
</svg>
