<svg width="83" height="83" viewBox="0 0 83 83" fill="none" xmlns="http://www.w3.org/2000/svg">
<path opacity="0.2" d="M71.7453 18.9174V66.852H11.1963V16.3945H69.2224C69.8915 16.3945 70.5332 16.6604 71.0063 17.1336C71.4794 17.6066 71.7453 18.2483 71.7453 18.9174Z" fill="#F99A03"/>
<path d="M74.2683 66.8524C74.2683 67.5216 74.0024 68.1633 73.5294 68.6363C73.0562 69.1095 72.4145 69.3753 71.7454 69.3753H11.1965C10.5273 69.3753 9.88564 69.1095 9.41252 68.6363C8.93938 68.1633 8.67358 67.5216 8.67358 66.8524V16.3949C8.67358 15.7259 8.93938 15.0842 9.41252 14.6111C9.88564 14.1379 10.5273 13.8721 11.1965 13.8721C11.8655 13.8721 12.5073 14.1379 12.9804 14.6111C13.4535 15.0842 13.7194 15.7259 13.7194 16.3949V46.1554L29.7175 32.1629C30.1528 31.7819 30.7059 31.562 31.284 31.5401C31.8623 31.5184 32.4303 31.6959 32.8932 32.0431L51.4394 45.9536L70.0835 29.64C70.3279 29.3981 70.6192 29.2087 70.9396 29.0834C71.2599 28.9582 71.6026 28.8998 71.9463 28.9118C72.29 28.9238 72.6278 29.0058 72.9386 29.1532C73.2494 29.3004 73.5268 29.5097 73.7539 29.7682C73.9808 30.0266 74.1526 30.3287 74.2586 30.6559C74.3645 30.9832 74.4024 31.3287 74.3699 31.6711C74.3375 32.0135 74.2353 32.3457 74.0698 32.6472C73.9043 32.9487 73.6789 33.2132 73.4074 33.4243L53.2244 51.0844C52.789 51.4656 52.2359 51.6854 51.6578 51.7073C51.0796 51.7291 50.5115 51.5516 50.0487 51.2043L31.5025 37.3001L13.7194 52.86V64.3295H71.7454C72.4145 64.3295 73.0562 64.5954 73.5294 65.0686C74.0024 65.5416 74.2683 66.1833 74.2683 66.8524Z" fill="#F99A03"/>
</svg>
